<svg width="381" height="304" viewBox="0 0 381 304" fill="none" xmlns="http://www.w3.org/2000/svg">
<g clip-path="url(#clip0_1302_284)">
<path d="M341.689 8.83008H39.3193C17.62 8.83008 0.0292969 26.4208 0.0292969 48.1201V264.71C0.0292969 286.409 17.62 304 39.3193 304H341.689C363.389 304 380.979 286.409 380.979 264.71V48.1201C380.979 26.4208 363.389 8.83008 341.689 8.83008Z" fill="white"/>
<path d="M34.0292 51.4791L25.3592 65.7291C24.9292 66.4291 24.8792 67.3091 25.2192 68.0591L71.5192 168.989C72.3392 170.789 74.8292 170.949 75.8792 169.269L94.6892 139.229C95.1392 138.499 95.9392 138.059 96.7992 138.059H101.519C102.889 138.059 103.999 139.169 103.999 140.539V207.099C103.999 208.469 105.109 209.579 106.479 209.579H251.099C253.099 209.579 254.279 211.819 253.149 213.469L231.199 245.349C230.069 246.999 231.249 249.239 233.249 249.239H347.329C348.249 249.239 349.089 248.739 349.519 247.929L355.709 236.359C356.079 235.669 356.099 234.839 355.769 234.129L310.439 137.919C309.599 136.149 307.139 135.989 306.089 137.649L288.709 165.179C288.249 165.899 287.459 166.339 286.609 166.339C285.239 166.339 284.129 165.229 284.129 163.859V96.9791C284.129 95.6091 283.019 94.4991 281.649 94.4991H126.959C125.019 94.4991 123.829 92.3791 124.839 90.7191L147.209 54.0691C148.219 52.4091 147.029 50.2891 145.089 50.2891H36.1492C35.2792 50.2891 34.4792 50.7391 34.0292 51.4791V51.4791Z" fill="black" stroke="black" stroke-width="12" stroke-miterlimit="10"/>
<path d="M130.485 194.522C140.946 194.522 148.988 187.492 150.506 177.144H139.427C138.302 181.531 134.872 184.399 130.485 184.399C124.917 184.399 120.812 179.956 120.812 173.882C120.812 167.808 124.917 163.309 130.485 163.309C134.647 163.309 138.021 165.952 139.371 169.945H150.394C148.763 159.991 140.777 153.186 130.485 153.186C118.506 153.186 109.564 162.072 109.564 173.882C109.564 185.636 118.506 194.522 130.485 194.522ZM176.893 193.51H188.985L181.167 179.225C185.048 176.919 187.41 172.926 187.41 168.089C187.41 159.878 181.224 154.142 172.788 154.142H155.691V193.51H166.545V181.474H170.482L176.893 193.51ZM166.545 163.815H171.494C174.531 163.815 176.275 165.615 176.275 168.089C176.275 170.508 174.531 172.364 171.494 172.364H166.545V163.815ZM204.495 184.118V178.212H217.43V169.327H204.495V163.534H218.892V154.142H193.697V193.51H219.398V184.118H204.495ZM268.967 154.142L262.725 176.863L253.164 154.367H249.452L240.06 176.863L233.649 154.142H222.007L234.323 193.51H243.884L251.308 174.557L258.844 193.51H268.405L280.553 154.142H268.967Z" fill="white"/>
<path d="M129.514 139.801C139.975 139.801 148.017 132.771 149.536 122.423H138.456C137.332 126.81 133.901 129.678 129.514 129.678C123.947 129.678 119.841 125.235 119.841 119.161C119.841 113.087 123.947 108.588 129.514 108.588C133.676 108.588 137.05 111.231 138.4 115.225H149.423C147.792 105.27 139.806 98.465 129.514 98.465C117.535 98.465 108.593 107.351 108.593 119.161C108.593 130.915 117.535 139.801 129.514 139.801ZM174.348 139.801C187.002 139.801 196 131.197 196 119.161C196 107.07 187.002 98.465 174.348 98.465C161.694 98.465 152.695 107.126 152.695 119.161C152.695 131.14 161.694 139.801 174.348 139.801ZM174.348 129.734C168.386 129.734 163.943 125.235 163.943 119.161C163.943 113.031 168.386 108.532 174.348 108.532C180.365 108.532 184.696 112.975 184.696 119.161C184.696 125.291 180.365 129.734 174.348 129.734ZM217.429 99.4211H201.513V138.789H217.429C229.352 138.789 237.788 130.578 237.788 119.105C237.788 107.576 229.352 99.4211 217.429 99.4211ZM216.923 128.891H212.424V109.376H216.923C222.772 109.376 226.653 113.256 226.653 119.105C226.653 124.898 222.772 128.891 216.923 128.891ZM254.217 129.397V123.492H267.152V114.606H254.217V108.813H268.614V99.4211H243.419V138.789H269.12V129.397H254.217Z" fill="white"/>
<path d="M71.2678 154.484L30.7424 67.9911L36.5463 58.9748L131.547 60.8409L111.692 91.6861L69.5568 86.9359L91.1233 123.639L71.2678 154.484Z" fill="white"/>
<path d="M245.636 241.029L341.146 242.104L346.95 233.088L305.915 147.386L286.06 178.231L307.83 214.617L265.491 210.184L245.636 241.029Z" fill="white"/>
</g>
<defs>
<clipPath id="clip0_1302_284">
<rect width="381" height="304" fill="white"/>
</clipPath>
</defs>
</svg>
