<?xml version="1.0" encoding="UTF-8"?>
<svg xmlns="http://www.w3.org/2000/svg" viewBox="0 0 596.28 842.89">
  <defs>
    <style>
      .cls-1 {
        font-family: MontASPro-Heavy, 'Mont AS Pro';
        font-size: 157.54px;
      }

      .cls-1, .cls-2, .cls-3 {
        stroke-miterlimit: 10;
      }

      .cls-1, .cls-4 {
        fill: #fff;
      }

      .cls-1, .cls-3 {
        stroke: #000;
      }

      .cls-2 {
        stroke: #1d1d1b;
      }

      .cls-3 {
        stroke-width: 15px;
      }
    </style>
  </defs>
  <g id="Ebene_1" data-name="Ebene 1">
    <rect class="cls-2" x=".5" y=".5" width="595.28" height="841.89"/>
  </g>
  <g id="Ebene_2" data-name="Ebene 2">
    <g>
      <rect class="cls-4" x="124.7" y="287.86" width="346.87" height="227.9" rx="12" ry="12"/>
      <path class="cls-3" d="M259.95,341.79v10.68c0,3.3,2.67,5.97,5.97,5.97h8.72c2.36,0,4.5-1.39,5.46-3.55l13.62-30.69c.96-2.16,3.1-3.55,5.46-3.55h45.82c4.31,0,7.2,4.42,5.47,8.36h0c-1.21,2.77-.16,6,2.44,7.53l73.23,43.23c1.82,1.07,2.94,3.03,2.94,5.14v34.62c0,2.22-1.23,4.25-3.19,5.29l-86.79,45.65c-3.96,2.08-8.71-.76-8.75-5.23l-.25-29.28c-.06-6.71-9.44-8.24-11.62-1.89l-15.12,43.98c-.83,2.41-3.1,4.03-5.65,4.03h-60.6c-3.3,0-5.97-2.67-5.97-5.97v-12.42c0-2.1-1.1-4.05-2.91-5.13l-65.95-39.44c-1.8-1.08-2.91-3.03-2.91-5.13v-23.99c0-2.09,1.09-4.03,2.88-5.11l88.65-53.63c3.98-2.41,9.07,.46,9.07,5.11v5.42Z"/>
      <text class="cls-1" transform="translate(172.91 450.72)"><tspan x="0" y="0">&lt;/&gt;</tspan></text>
    </g>
  </g>
</svg>